<mxfile host="app.diagrams.net" modified="2024-02-27T19:52:06.176Z" agent="Mozilla/5.0 (Windows NT 10.0; Win64; x64; rv:109.0) Gecko/20100101 Firefox/115.0" etag="xe8HmFxtxUXK2PuT6IKg" version="23.1.7" type="github">
  <diagram name="Page-1" id="ZSJbQLLg0TJW9OiAOiQb">
    <mxGraphModel dx="1434" dy="754" grid="1" gridSize="10" guides="1" tooltips="1" connect="1" arrows="1" fold="1" page="1" pageScale="1" pageWidth="850" pageHeight="1100" math="0" shadow="0">
      <root>
        <mxCell id="0" />
        <mxCell id="1" parent="0" />
        <mxCell id="Srjansffv7iZhGzBBmL8-21" value="" style="edgeStyle=orthogonalEdgeStyle;rounded=0;orthogonalLoop=1;jettySize=auto;html=1;" edge="1" parent="1" source="Srjansffv7iZhGzBBmL8-19" target="Srjansffv7iZhGzBBmL8-20">
          <mxGeometry relative="1" as="geometry" />
        </mxCell>
        <mxCell id="Srjansffv7iZhGzBBmL8-19" value="Start" style="ellipse;whiteSpace=wrap;html=1;fillColor=#d5e8d4;strokeColor=#82b366;" vertex="1" parent="1">
          <mxGeometry x="50" y="160" width="120" height="80" as="geometry" />
        </mxCell>
        <mxCell id="Srjansffv7iZhGzBBmL8-149" value="" style="edgeStyle=orthogonalEdgeStyle;rounded=0;orthogonalLoop=1;jettySize=auto;html=1;" edge="1" parent="1" source="Srjansffv7iZhGzBBmL8-20" target="Srjansffv7iZhGzBBmL8-24">
          <mxGeometry relative="1" as="geometry" />
        </mxCell>
        <mxCell id="Srjansffv7iZhGzBBmL8-20" value="Suit Types" style="rounded=1;whiteSpace=wrap;html=1;" vertex="1" parent="1">
          <mxGeometry x="50" y="320" width="120" height="60" as="geometry" />
        </mxCell>
        <mxCell id="Srjansffv7iZhGzBBmL8-31" value="" style="edgeStyle=orthogonalEdgeStyle;rounded=0;orthogonalLoop=1;jettySize=auto;html=1;" edge="1" parent="1" source="Srjansffv7iZhGzBBmL8-24" target="Srjansffv7iZhGzBBmL8-30">
          <mxGeometry relative="1" as="geometry" />
        </mxCell>
        <mxCell id="Srjansffv7iZhGzBBmL8-34" value="Yes" style="edgeLabel;html=1;align=center;verticalAlign=middle;resizable=0;points=[];" vertex="1" connectable="0" parent="Srjansffv7iZhGzBBmL8-31">
          <mxGeometry x="-0.2444" y="1" relative="1" as="geometry">
            <mxPoint as="offset" />
          </mxGeometry>
        </mxCell>
        <mxCell id="Srjansffv7iZhGzBBmL8-236" value="" style="edgeStyle=orthogonalEdgeStyle;rounded=0;orthogonalLoop=1;jettySize=auto;html=1;" edge="1" parent="1" source="Srjansffv7iZhGzBBmL8-24" target="Srjansffv7iZhGzBBmL8-235">
          <mxGeometry relative="1" as="geometry" />
        </mxCell>
        <mxCell id="Srjansffv7iZhGzBBmL8-241" value="No" style="edgeLabel;html=1;align=center;verticalAlign=middle;resizable=0;points=[];" vertex="1" connectable="0" parent="Srjansffv7iZhGzBBmL8-236">
          <mxGeometry x="0.1333" y="-2" relative="1" as="geometry">
            <mxPoint as="offset" />
          </mxGeometry>
        </mxCell>
        <mxCell id="Srjansffv7iZhGzBBmL8-24" value="&lt;div&gt;Is the Suit&amp;nbsp;&lt;/div&gt;&lt;div&gt;&amp;nbsp;N?&lt;/div&gt;" style="rhombus;whiteSpace=wrap;html=1;" vertex="1" parent="1">
          <mxGeometry x="225" y="310" width="80" height="80" as="geometry" />
        </mxCell>
        <mxCell id="Srjansffv7iZhGzBBmL8-192" value="" style="edgeStyle=orthogonalEdgeStyle;rounded=0;orthogonalLoop=1;jettySize=auto;html=1;" edge="1" parent="1" source="Srjansffv7iZhGzBBmL8-30" target="Srjansffv7iZhGzBBmL8-187">
          <mxGeometry relative="1" as="geometry" />
        </mxCell>
        <mxCell id="Srjansffv7iZhGzBBmL8-30" value="N Suit" style="rounded=1;whiteSpace=wrap;html=1;" vertex="1" parent="1">
          <mxGeometry x="205" y="590" width="120" height="60" as="geometry" />
        </mxCell>
        <mxCell id="Srjansffv7iZhGzBBmL8-61" value="" style="edgeStyle=orthogonalEdgeStyle;rounded=0;orthogonalLoop=1;jettySize=auto;html=1;" edge="1" parent="1" source="Srjansffv7iZhGzBBmL8-55" target="Srjansffv7iZhGzBBmL8-60">
          <mxGeometry relative="1" as="geometry" />
        </mxCell>
        <mxCell id="Srjansffv7iZhGzBBmL8-69" value="Yes" style="edgeLabel;html=1;align=center;verticalAlign=middle;resizable=0;points=[];" vertex="1" connectable="0" parent="Srjansffv7iZhGzBBmL8-61">
          <mxGeometry x="-0.4" y="1" relative="1" as="geometry">
            <mxPoint as="offset" />
          </mxGeometry>
        </mxCell>
        <mxCell id="Srjansffv7iZhGzBBmL8-239" value="" style="edgeStyle=orthogonalEdgeStyle;rounded=0;orthogonalLoop=1;jettySize=auto;html=1;" edge="1" parent="1" source="Srjansffv7iZhGzBBmL8-55" target="Srjansffv7iZhGzBBmL8-238">
          <mxGeometry relative="1" as="geometry" />
        </mxCell>
        <mxCell id="Srjansffv7iZhGzBBmL8-240" value="No" style="edgeLabel;html=1;align=center;verticalAlign=middle;resizable=0;points=[];" vertex="1" connectable="0" parent="Srjansffv7iZhGzBBmL8-239">
          <mxGeometry x="-0.0667" y="2" relative="1" as="geometry">
            <mxPoint as="offset" />
          </mxGeometry>
        </mxCell>
        <mxCell id="Srjansffv7iZhGzBBmL8-55" value="Is the Suit&amp;nbsp; Next N?" style="rhombus;whiteSpace=wrap;html=1;rounded=1;" vertex="1" parent="1">
          <mxGeometry x="385" y="470" width="80" height="80" as="geometry" />
        </mxCell>
        <mxCell id="Srjansffv7iZhGzBBmL8-193" value="" style="edgeStyle=orthogonalEdgeStyle;rounded=0;orthogonalLoop=1;jettySize=auto;html=1;" edge="1" parent="1" source="Srjansffv7iZhGzBBmL8-60" target="Srjansffv7iZhGzBBmL8-189">
          <mxGeometry relative="1" as="geometry" />
        </mxCell>
        <mxCell id="Srjansffv7iZhGzBBmL8-60" value="Next N Suit" style="rounded=1;whiteSpace=wrap;html=1;" vertex="1" parent="1">
          <mxGeometry x="365" y="690" width="120" height="60" as="geometry" />
        </mxCell>
        <mxCell id="Srjansffv7iZhGzBBmL8-231" value="" style="edgeStyle=orthogonalEdgeStyle;rounded=0;orthogonalLoop=1;jettySize=auto;html=1;" edge="1" parent="1" source="Srjansffv7iZhGzBBmL8-187" target="Srjansffv7iZhGzBBmL8-204">
          <mxGeometry relative="1" as="geometry" />
        </mxCell>
        <mxCell id="Srjansffv7iZhGzBBmL8-187" value="" style="ellipse;whiteSpace=wrap;html=1;aspect=fixed;fillColor=#f5f5f5;fontColor=#333333;strokeColor=#666666;" vertex="1" parent="1">
          <mxGeometry x="255" y="850" width="20" height="20" as="geometry" />
        </mxCell>
        <mxCell id="Srjansffv7iZhGzBBmL8-274" value="" style="edgeStyle=orthogonalEdgeStyle;rounded=0;orthogonalLoop=1;jettySize=auto;html=1;" edge="1" parent="1" source="Srjansffv7iZhGzBBmL8-189" target="Srjansffv7iZhGzBBmL8-187">
          <mxGeometry relative="1" as="geometry" />
        </mxCell>
        <mxCell id="Srjansffv7iZhGzBBmL8-189" value="" style="ellipse;whiteSpace=wrap;html=1;aspect=fixed;fillColor=#f5f5f5;fontColor=#333333;strokeColor=#666666;" vertex="1" parent="1">
          <mxGeometry x="415" y="850" width="20" height="20" as="geometry" />
        </mxCell>
        <mxCell id="Srjansffv7iZhGzBBmL8-207" value="" style="edgeStyle=orthogonalEdgeStyle;rounded=0;orthogonalLoop=1;jettySize=auto;html=1;" edge="1" parent="1" source="Srjansffv7iZhGzBBmL8-204" target="Srjansffv7iZhGzBBmL8-206">
          <mxGeometry relative="1" as="geometry" />
        </mxCell>
        <mxCell id="Srjansffv7iZhGzBBmL8-204" value="Rank of Suit" style="rounded=1;whiteSpace=wrap;html=1;fillColor=#f5f5f5;strokeColor=#666666;fontColor=#333333;" vertex="1" parent="1">
          <mxGeometry x="205" y="980" width="120" height="60" as="geometry" />
        </mxCell>
        <mxCell id="Srjansffv7iZhGzBBmL8-246" value="" style="edgeStyle=orthogonalEdgeStyle;rounded=0;orthogonalLoop=1;jettySize=auto;html=1;" edge="1" parent="1" source="Srjansffv7iZhGzBBmL8-206" target="Srjansffv7iZhGzBBmL8-245">
          <mxGeometry relative="1" as="geometry" />
        </mxCell>
        <mxCell id="Srjansffv7iZhGzBBmL8-247" value="Yes" style="edgeLabel;html=1;align=center;verticalAlign=middle;resizable=0;points=[];" vertex="1" connectable="0" parent="Srjansffv7iZhGzBBmL8-246">
          <mxGeometry x="-0.1667" y="2" relative="1" as="geometry">
            <mxPoint as="offset" />
          </mxGeometry>
        </mxCell>
        <mxCell id="Srjansffv7iZhGzBBmL8-260" value="" style="edgeStyle=orthogonalEdgeStyle;rounded=0;orthogonalLoop=1;jettySize=auto;html=1;" edge="1" parent="1" source="Srjansffv7iZhGzBBmL8-206" target="Srjansffv7iZhGzBBmL8-215">
          <mxGeometry relative="1" as="geometry" />
        </mxCell>
        <mxCell id="Srjansffv7iZhGzBBmL8-262" value="No" style="edgeLabel;html=1;align=center;verticalAlign=middle;resizable=0;points=[];" vertex="1" connectable="0" parent="Srjansffv7iZhGzBBmL8-260">
          <mxGeometry x="-0.2" y="-2" relative="1" as="geometry">
            <mxPoint as="offset" />
          </mxGeometry>
        </mxCell>
        <mxCell id="Srjansffv7iZhGzBBmL8-206" value="Is the Rank N?" style="rhombus;whiteSpace=wrap;html=1;fillColor=#f5f5f5;strokeColor=#666666;fontColor=#333333;rounded=1;" vertex="1" parent="1">
          <mxGeometry x="225" y="1100" width="80" height="80" as="geometry" />
        </mxCell>
        <mxCell id="Srjansffv7iZhGzBBmL8-269" value="" style="edgeStyle=orthogonalEdgeStyle;rounded=0;orthogonalLoop=1;jettySize=auto;html=1;" edge="1" parent="1" source="Srjansffv7iZhGzBBmL8-212" target="Srjansffv7iZhGzBBmL8-219">
          <mxGeometry relative="1" as="geometry" />
        </mxCell>
        <mxCell id="Srjansffv7iZhGzBBmL8-212" value="Input Rank of Card" style="rounded=1;whiteSpace=wrap;html=1;fillColor=#f5f5f5;strokeColor=#666666;fontColor=#333333;" vertex="1" parent="1">
          <mxGeometry x="755" y="1110" width="120" height="60" as="geometry" />
        </mxCell>
        <mxCell id="Srjansffv7iZhGzBBmL8-261" value="" style="edgeStyle=orthogonalEdgeStyle;rounded=0;orthogonalLoop=1;jettySize=auto;html=1;" edge="1" parent="1" source="Srjansffv7iZhGzBBmL8-215" target="Srjansffv7iZhGzBBmL8-217">
          <mxGeometry relative="1" as="geometry" />
        </mxCell>
        <mxCell id="Srjansffv7iZhGzBBmL8-215" value="Add 1 to Rank of Card" style="rounded=1;whiteSpace=wrap;html=1;fillColor=#f5f5f5;strokeColor=#666666;fontColor=#333333;" vertex="1" parent="1">
          <mxGeometry x="405" y="1110" width="120" height="60" as="geometry" />
        </mxCell>
        <mxCell id="Srjansffv7iZhGzBBmL8-252" value="" style="edgeStyle=orthogonalEdgeStyle;rounded=0;orthogonalLoop=1;jettySize=auto;html=1;" edge="1" parent="1" source="Srjansffv7iZhGzBBmL8-217" target="Srjansffv7iZhGzBBmL8-224">
          <mxGeometry relative="1" as="geometry" />
        </mxCell>
        <mxCell id="Srjansffv7iZhGzBBmL8-263" value="Yes" style="edgeLabel;html=1;align=center;verticalAlign=middle;resizable=0;points=[];" vertex="1" connectable="0" parent="Srjansffv7iZhGzBBmL8-252">
          <mxGeometry x="-0.2182" relative="1" as="geometry">
            <mxPoint as="offset" />
          </mxGeometry>
        </mxCell>
        <mxCell id="Srjansffv7iZhGzBBmL8-267" value="" style="edgeStyle=orthogonalEdgeStyle;rounded=0;orthogonalLoop=1;jettySize=auto;html=1;" edge="1" parent="1" source="Srjansffv7iZhGzBBmL8-217" target="Srjansffv7iZhGzBBmL8-212">
          <mxGeometry relative="1" as="geometry" />
        </mxCell>
        <mxCell id="Srjansffv7iZhGzBBmL8-268" value="No" style="edgeLabel;html=1;align=center;verticalAlign=middle;resizable=0;points=[];" vertex="1" connectable="0" parent="Srjansffv7iZhGzBBmL8-267">
          <mxGeometry x="-0.2667" relative="1" as="geometry">
            <mxPoint as="offset" />
          </mxGeometry>
        </mxCell>
        <mxCell id="Srjansffv7iZhGzBBmL8-217" value="&lt;div&gt;Is the Rank&amp;nbsp;&lt;/div&gt;&lt;div&gt;N?&lt;/div&gt;" style="rhombus;whiteSpace=wrap;html=1;fillColor=#f5f5f5;strokeColor=#666666;fontColor=#333333;rounded=1;" vertex="1" parent="1">
          <mxGeometry x="615" y="1100" width="80" height="80" as="geometry" />
        </mxCell>
        <mxCell id="Srjansffv7iZhGzBBmL8-271" value="" style="edgeStyle=orthogonalEdgeStyle;rounded=0;orthogonalLoop=1;jettySize=auto;html=1;" edge="1" parent="1" source="Srjansffv7iZhGzBBmL8-219" target="Srjansffv7iZhGzBBmL8-270">
          <mxGeometry relative="1" as="geometry" />
        </mxCell>
        <mxCell id="Srjansffv7iZhGzBBmL8-219" value="New Rank of Card" style="rounded=1;whiteSpace=wrap;html=1;fillColor=#f5f5f5;strokeColor=#666666;fontColor=#333333;" vertex="1" parent="1">
          <mxGeometry x="755" y="970" width="120" height="60" as="geometry" />
        </mxCell>
        <mxCell id="Srjansffv7iZhGzBBmL8-256" value="" style="edgeStyle=orthogonalEdgeStyle;rounded=0;orthogonalLoop=1;jettySize=auto;html=1;" edge="1" parent="1" source="Srjansffv7iZhGzBBmL8-224" target="Srjansffv7iZhGzBBmL8-253">
          <mxGeometry relative="1" as="geometry" />
        </mxCell>
        <mxCell id="Srjansffv7iZhGzBBmL8-224" value="" style="ellipse;whiteSpace=wrap;html=1;aspect=fixed;fillColor=#f5f5f5;fontColor=#333333;strokeColor=#666666;" vertex="1" parent="1">
          <mxGeometry x="645" y="1270" width="20" height="20" as="geometry" />
        </mxCell>
        <mxCell id="Srjansffv7iZhGzBBmL8-237" value="" style="edgeStyle=orthogonalEdgeStyle;rounded=0;orthogonalLoop=1;jettySize=auto;html=1;" edge="1" parent="1" source="Srjansffv7iZhGzBBmL8-235" target="Srjansffv7iZhGzBBmL8-55">
          <mxGeometry relative="1" as="geometry" />
        </mxCell>
        <mxCell id="Srjansffv7iZhGzBBmL8-235" value="Go to the Next N Suit" style="rounded=1;whiteSpace=wrap;html=1;" vertex="1" parent="1">
          <mxGeometry x="365" y="320" width="120" height="60" as="geometry" />
        </mxCell>
        <mxCell id="Srjansffv7iZhGzBBmL8-243" value="" style="edgeStyle=orthogonalEdgeStyle;rounded=0;orthogonalLoop=1;jettySize=auto;html=1;" edge="1" parent="1" source="Srjansffv7iZhGzBBmL8-238" target="Srjansffv7iZhGzBBmL8-242">
          <mxGeometry relative="1" as="geometry" />
        </mxCell>
        <mxCell id="Srjansffv7iZhGzBBmL8-238" value="Suit " style="rounded=1;whiteSpace=wrap;html=1;" vertex="1" parent="1">
          <mxGeometry x="525" y="480" width="120" height="60" as="geometry" />
        </mxCell>
        <mxCell id="Srjansffv7iZhGzBBmL8-244" value="" style="edgeStyle=orthogonalEdgeStyle;rounded=0;orthogonalLoop=1;jettySize=auto;html=1;" edge="1" parent="1" source="Srjansffv7iZhGzBBmL8-242" target="Srjansffv7iZhGzBBmL8-235">
          <mxGeometry relative="1" as="geometry" />
        </mxCell>
        <mxCell id="Srjansffv7iZhGzBBmL8-242" value="" style="ellipse;whiteSpace=wrap;html=1;aspect=fixed;fillColor=#f5f5f5;fontColor=#333333;strokeColor=#666666;" vertex="1" parent="1">
          <mxGeometry x="575" y="340" width="20" height="20" as="geometry" />
        </mxCell>
        <mxCell id="Srjansffv7iZhGzBBmL8-245" value="End" style="ellipse;whiteSpace=wrap;html=1;fillColor=#f8cecc;strokeColor=#b85450;" vertex="1" parent="1">
          <mxGeometry x="205" y="1240" width="120" height="80" as="geometry" />
        </mxCell>
        <mxCell id="Srjansffv7iZhGzBBmL8-264" value="" style="edgeStyle=orthogonalEdgeStyle;rounded=0;orthogonalLoop=1;jettySize=auto;html=1;" edge="1" parent="1" source="Srjansffv7iZhGzBBmL8-253" target="Srjansffv7iZhGzBBmL8-245">
          <mxGeometry relative="1" as="geometry" />
        </mxCell>
        <mxCell id="Srjansffv7iZhGzBBmL8-253" value="" style="ellipse;whiteSpace=wrap;html=1;aspect=fixed;fillColor=#f5f5f5;fontColor=#333333;strokeColor=#666666;" vertex="1" parent="1">
          <mxGeometry x="465" y="1270" width="20" height="20" as="geometry" />
        </mxCell>
        <mxCell id="Srjansffv7iZhGzBBmL8-273" value="" style="edgeStyle=orthogonalEdgeStyle;rounded=0;orthogonalLoop=1;jettySize=auto;html=1;" edge="1" parent="1" source="Srjansffv7iZhGzBBmL8-270" target="Srjansffv7iZhGzBBmL8-215">
          <mxGeometry relative="1" as="geometry" />
        </mxCell>
        <mxCell id="Srjansffv7iZhGzBBmL8-270" value="" style="ellipse;whiteSpace=wrap;html=1;aspect=fixed;fillColor=#f5f5f5;fontColor=#333333;strokeColor=#666666;" vertex="1" parent="1">
          <mxGeometry x="455" y="990" width="20" height="20" as="geometry" />
        </mxCell>
        <mxCell id="Srjansffv7iZhGzBBmL8-279" value="" style="edgeStyle=orthogonalEdgeStyle;rounded=0;orthogonalLoop=1;jettySize=auto;html=1;" edge="1" parent="1" source="Srjansffv7iZhGzBBmL8-278" target="Srjansffv7iZhGzBBmL8-19">
          <mxGeometry relative="1" as="geometry" />
        </mxCell>
        <mxCell id="Srjansffv7iZhGzBBmL8-278" value="&lt;div&gt;New Standard&amp;nbsp;&lt;/div&gt;&lt;div&gt;Deck&lt;/div&gt;" style="shape=parallelogram;perimeter=parallelogramPerimeter;whiteSpace=wrap;html=1;fixedSize=1;" vertex="1" parent="1">
          <mxGeometry x="45" y="50" width="130" height="60" as="geometry" />
        </mxCell>
        <mxCell id="Srjansffv7iZhGzBBmL8-275" value="New Deck" style="shape=table;startSize=30;container=1;collapsible=0;childLayout=tableLayout;" vertex="1" parent="1">
          <mxGeometry x="40" width="850" height="1330" as="geometry" />
        </mxCell>
        <mxCell id="Srjansffv7iZhGzBBmL8-276" value="" style="shape=tableRow;horizontal=0;startSize=0;swimlaneHead=0;swimlaneBody=0;strokeColor=inherit;top=0;left=0;bottom=0;right=0;collapsible=0;dropTarget=0;fillColor=none;points=[[0,0.5],[1,0.5]];portConstraint=eastwest;" vertex="1" parent="Srjansffv7iZhGzBBmL8-275">
          <mxGeometry y="30" width="850" height="1300" as="geometry" />
        </mxCell>
        <mxCell id="Srjansffv7iZhGzBBmL8-277" value="" style="shape=partialRectangle;html=1;whiteSpace=wrap;connectable=0;strokeColor=inherit;overflow=hidden;fillColor=none;top=0;left=0;bottom=0;right=0;pointerEvents=1;" vertex="1" parent="Srjansffv7iZhGzBBmL8-276">
          <mxGeometry width="850" height="1300" as="geometry">
            <mxRectangle width="850" height="1300" as="alternateBounds" />
          </mxGeometry>
        </mxCell>
      </root>
    </mxGraphModel>
  </diagram>
</mxfile>
